<svg xmlns="http://www.w3.org/2000/svg" viewBox="0 0 256 256"><defs><style>.cls-1{fill:#f88;}.cls-2{fill:#f97171;}.cls-3{fill:#2fb1ea;}.cls-4{fill:#90fc95;}.cls-5{fill:#52e355;}.cls-6{fill:#a4ecff;}.cls-7{fill:#6dd0fc;}.cls-8{fill:#fff;}.cls-9{fill:#cbecf9;}.cls-10{fill:#ffc444;}.cls-11{fill:#ffe76e;}.cls-12{fill:#d4ffd4;}.cls-13{fill:#ffbdbd;}.cls-14{fill:#bbf1ff;}.cls-15{fill:#fff4c5;}</style></defs><title>business economic finance interprise company pie chart</title><g id="Layer_2" data-name="Layer 2"><path class="cls-1" d="M118.24,24.24A104,104,0,0,0,48,193.89l70.27-70.27Z"/><path class="cls-2" d="M118.24,67.63a61.51,61.51,0,0,0-38.15,94.14l38.15-38.15Z"/><path class="cls-3" d="M48,195.89h-.1a2,2,0,0,1-1.45-.73A106,106,0,0,1,118.05,22.25a2,2,0,0,1,2.19,2v99.38a2,2,0,0,1-.59,1.41L49.38,195.3A2,2,0,0,1,48,195.89ZM116.24,26.46A102,102,0,0,0,48.13,190.9l68.11-68.11Z"/><path class="cls-4" d="M231.76,117.76a104,104,0,0,0-93.52-93.52v93.52Z"/><path class="cls-5" d="M192.11,117.76a61.68,61.68,0,0,0-53.87-51.16v51.16Z"/><path class="cls-3" d="M231.76,119.76H138.24a2,2,0,0,1-2-2V24.24a2,2,0,0,1,2.19-2,106,106,0,0,1,95.32,95.32,2,2,0,0,1-2,2.19Zm-91.52-4h89.3a102,102,0,0,0-89.3-89.3Z"/><path class="cls-6" d="M62.11,208a104,104,0,0,0,132.26,0L128.24,141.9Z"/><path class="cls-7" d="M93.73,176.41A61.38,61.38,0,0,0,165.38,179L128.24,141.9Z"/><path class="cls-3" d="M128.24,233.76a106.16,106.16,0,0,1-67.4-24.19,2,2,0,0,1-.14-3l66.13-66.13a2,2,0,0,1,2.83,0l66.13,66.13a2,2,0,0,1-.14,3A106.16,106.16,0,0,1,128.24,233.76ZM65.1,207.87a102,102,0,0,0,126.28,0l-63.14-63.14Z"/><path class="cls-8" d="M208.51,193.89a103.52,103.52,0,0,0,23.25-56.13H152.38Z"/><path class="cls-9" d="M152.38,137.76,180,165.4a61.27,61.27,0,0,0,12.08-27.64Z"/><path class="cls-3" d="M208.51,195.89a2,2,0,0,1-1.41-.59L151,139.17a2,2,0,0,1,1.41-3.41h79.38a2,2,0,0,1,2,2.19,105.32,105.32,0,0,1-23.7,57.21,2,2,0,0,1-1.45.73Zm-51.3-56.13,51.14,51.14a101.29,101.29,0,0,0,21.18-51.14Z"/><circle class="cls-10" cx="131.37" cy="127.76" r="53.56"/><circle class="cls-11" cx="131.37" cy="120.58" r="46.38"/><path class="cls-3" d="M131.37,183.32a55.56,55.56,0,1,1,55.56-55.56A55.62,55.62,0,0,1,131.37,183.32Zm0-107.12a51.56,51.56,0,1,0,51.56,51.56A51.62,51.62,0,0,0,131.37,76.2Z"/><path class="cls-3" d="M138.07,156.71H113.2a6,6,0,1,1,0-12h24.86a5.47,5.47,0,1,0,0-10.95H124.68a17.47,17.47,0,1,1,0-34.95h24.86a6,6,0,0,1,0,12H124.68a5.47,5.47,0,1,0,0,10.95h13.39a17.47,17.47,0,1,1,0,34.95Z"/><path class="cls-3" d="M131.37,110.81a6,6,0,0,1-6-6V93.34a6,6,0,1,1,12,0v11.47A6,6,0,0,1,131.37,110.81Z"/><path class="cls-3" d="M131.37,168.18a6,6,0,0,1-6-6V150.71a6,6,0,0,1,12,0v11.47A6,6,0,0,1,131.37,168.18Z"/><circle class="cls-12" cx="203.5" cy="27" r="5"/><circle class="cls-12" cx="181.5" cy="240" r="4"/><circle class="cls-12" cx="223.5" cy="47" r="3"/><circle class="cls-12" cx="20.5" cy="168" r="2"/><circle class="cls-12" cx="203.5" cy="206" r="1"/><circle class="cls-13" cx="126.5" cy="249" r="5"/><circle class="cls-13" cx="6.5" cy="132" r="4"/><circle class="cls-13" cx="243.5" cy="132" r="3"/><circle class="cls-13" cx="50.5" cy="18" r="2"/><circle class="cls-13" cx="232.5" cy="187" r="1"/><circle class="cls-14" cx="248.5" cy="100" r="5"/><circle class="cls-14" cx="62.5" cy="234" r="4"/><circle class="cls-14" cx="26.5" cy="72" r="3"/><circle class="cls-14" cx="167.5" cy="21" r="2"/><circle class="cls-14" cx="225.5" cy="213" r="1"/><circle class="cls-15" cx="138.5" cy="7" r="5"/><circle class="cls-15" cx="86.5" cy="21" r="4"/><circle class="cls-15" cx="203.5" cy="231" r="3"/><circle class="cls-15" cx="96.5" cy="238" r="2"/><circle class="cls-15" cx="24.5" cy="204" r="1"/></g></svg>